<svg width="291" height="171" viewBox="0 0 291 171" fill="none" xmlns="http://www.w3.org/2000/svg">
<path d="M14.1951 168.799C7.20722 168.799 1.5424 163.134 1.5424 156.146V144.317H0V120.659H1.5424V97H0V73.3415H1.5424V49.6829H0V26.0244H1.5424V14.1951C1.5424 7.20723 7.20722 1.5424 14.1951 1.5424H25.1372V0H47.0213V1.5424H68.9055V0H90.7896V1.5424H112.674V0H134.558V1.5424H156.442V0H178.326V1.5424H200.21V0H222.094V1.5424H243.979V0H265.863V1.5424H276.805C283.793 1.5424 289.458 7.20722 289.458 14.1951V26.0244H291V49.6829H289.458V73.3415H291V97H289.458V120.659H291V144.317H289.458V156.146C289.458 163.134 283.793 168.799 276.805 168.799H265.863V170.341H243.979V168.799H222.095V170.341H200.21V168.799H178.326V170.341H156.442V168.799H134.558V170.341H112.674V168.799H90.7896V170.341H68.9055V168.799H47.0214V170.341H25.1372V168.799H14.1951Z" fill="#F5F4F9"/>
<path d="M14.1951 168.799C7.20722 168.799 1.5424 163.134 1.5424 156.146V144.317H0V120.659H1.5424V97H0V73.3415H1.5424V49.6829H0V26.0244H1.5424V14.1951C1.5424 7.20723 7.20722 1.5424 14.1951 1.5424H25.1372V0H47.0213V1.5424H68.9055V0H90.7896V1.5424H112.674V0H134.558V1.5424H156.442V0H178.326V1.5424H200.21V0H222.094V1.5424H243.979V0H265.863V1.5424H276.805C283.793 1.5424 289.458 7.20722 289.458 14.1951V26.0244H291V49.6829H289.458V73.3415H291V97H289.458V120.659H291V144.317H289.458V156.146C289.458 163.134 283.793 168.799 276.805 168.799H265.863V170.341H243.979V168.799H222.095V170.341H200.21V168.799H178.326V170.341H156.442V168.799H134.558V170.341H112.674V168.799H90.7896V170.341H68.9055V168.799H47.0214V170.341H25.1372V168.799H14.1951Z" stroke="#383EDE" stroke-width="3.08481" stroke-linejoin="round" stroke-dasharray="22.62 22.62"/>
<mask id="path-2-inside-1_265_492" fill="white">
<path d="M0 22.7122C0 14.7622 0 10.7872 1.54718 7.75067C2.90811 5.07969 5.07969 2.90811 7.75067 1.54718C10.7872 0 14.7622 0 22.7122 0H268.288C276.238 0 280.213 0 283.249 1.54718C285.92 2.90811 288.092 5.07969 289.453 7.75067C291 10.7872 291 14.7622 291 22.7122V147.629C291 155.579 291 159.554 289.453 162.591C288.092 165.262 285.92 167.433 283.249 168.794C280.213 170.341 276.238 170.341 268.288 170.341H22.7122C14.7622 170.341 10.7872 170.341 7.75067 168.794C5.07969 167.433 2.90811 165.262 1.54718 162.591C0 159.554 0 155.579 0 147.629V22.7122Z"/>
</mask>
<path d="M0 0H291H0ZM291 156.146C291 164.476 284.247 171.229 275.918 171.229H15.0823C6.75258 171.229 0 164.476 0 156.146V156.146C0 163.496 6.35537 169.454 14.1951 169.454H276.805C284.645 169.454 291 163.496 291 156.146V156.146ZM0 170.341V0V170.341ZM291 0V170.341V0Z" fill="#0D193B" fill-opacity="0.1" mask="url(#path-2-inside-1_265_492)"/>
</svg>
